<svg viewBox="0 0 210 20" fill='white' xmlns="http://www.w3.org/2000/svg"><path d="M85.5513 20H76.1267C75.9706 19.9994 75.8182 19.9527 75.6893 19.8659C75.5603 19.7791 75.4608 19.6563 75.4036 19.5133L72.4534 11.9133C72.4436 11.8916 72.4294 11.8719 72.4117 11.8556C72.3941 11.8392 72.3733 11.8265 72.3506 11.8181C72.3279 11.8098 72.3038 11.8059 72.2795 11.8068C72.2553 11.8077 72.2315 11.8133 72.2096 11.8233C72.1854 11.8357 72.1639 11.8527 72.1465 11.8733C72.129 11.8939 72.1159 11.9177 72.1079 11.9433L70.3128 19.71C70.2704 19.8967 70.1079 19.9967 69.8437 19.9967H63.1558C62.8459 19.9967 62.6833 19.8783 62.6833 19.655C62.6794 19.638 62.6794 19.6203 62.6833 19.6033L67.1983 0.303333C67.2475 0.113333 67.4066 0.0166667 67.6708 0.0166667H75.202C75.3571 0.0167798 75.5084 0.0636462 75.6356 0.150956C75.7628 0.238265 75.8597 0.361826 75.9133 0.505L79.9914 10.9917C80.0032 11.0262 80.0261 11.0559 80.0567 11.0764C80.0873 11.0968 80.1238 11.1069 80.1608 11.105C80.1816 11.1061 80.2024 11.1026 80.2217 11.095C80.2761 11.0685 80.3201 11.0251 80.3471 10.9717L82.9687 0.305C82.9976 0.210616 83.0601 0.129601 83.1446 0.0766865C83.2291 0.0237724 83.3302 0.00247469 83.4293 0.0166667H90.0629C90.3661 0.0166667 90.5202 0.133333 90.5202 0.363333V0.42L86.0069 19.71C85.9612 19.9 85.8037 20 85.5513 20ZM179.139 20H172.466C172.154 20 171.997 19.885 171.997 19.6583V19.6067L175.123 6.27333C175.127 6.23454 175.127 6.19546 175.123 6.15667C175.123 5.705 174.803 5.465 174.197 5.465H169.65C169.324 5.465 169.174 5.35667 169.174 5.12333C169.173 5.11502 169.173 5.10665 169.174 5.09833V5.09C169.174 5.08279 169.174 5.07554 169.174 5.06833L170.086 1.14167C170.274 0.373333 170.876 0 171.927 0H187.726C188.968 0 189.598 0.46 189.598 1.37C189.596 1.43669 189.588 1.50308 189.574 1.56833L189.566 1.615L188.931 4.325C188.761 5.08167 188.138 5.46667 187.096 5.46667H183.694C183.186 5.46667 182.873 5.66 182.786 6.04167L179.582 19.7083C179.559 19.8967 179.399 20 179.139 20ZM160.267 19.9833H145.872C144.622 19.9833 143.989 19.52 143.989 18.605C143.988 18.5286 143.997 18.4524 144.016 18.3783L144.666 15.655C144.836 14.895 145.456 14.5083 146.497 14.5083H155.962C156.008 14.5062 156.052 14.4866 156.083 14.4536C156.115 14.4207 156.132 14.377 156.132 14.3317C156.131 14.3022 156.124 14.2733 156.11 14.2472C156.096 14.2211 156.076 14.1986 156.052 14.1817L147.237 8.64C147.041 8.53716 146.877 8.38501 146.76 8.19908C146.643 8.01315 146.579 7.8001 146.573 7.58167C146.568 7.50346 146.577 7.4249 146.6 7.35L147.796 2.28667C148.136 0.768333 149.371 0 151.464 0H165.617C166.859 0 167.48 0.46 167.48 1.37C167.484 1.45373 167.47 1.53736 167.438 1.615L166.815 4.325C166.645 5.08167 166.022 5.46667 164.977 5.46667H154.04C153.92 5.46927 153.805 5.51789 153.721 5.60222C153.636 5.68656 153.589 5.79995 153.588 5.91833C153.588 5.9958 153.607 6.07218 153.643 6.14076C153.68 6.20934 153.733 6.26802 153.798 6.31167L164.154 12.7983C164.395 12.9507 164.582 13.1721 164.691 13.4325C164.8 13.6929 164.825 13.98 164.764 14.255L163.961 17.7C163.597 19.215 162.357 19.9833 160.267 19.9833ZM137.574 19.9833H121.648C119.175 19.9833 117.922 19.0567 117.922 17.23C117.92 17.0705 117.944 16.9117 117.995 16.76L121.827 0.355L122.359 0.0216667H129.616H129.648C129.673 0.0272659 129.696 0.0376661 129.717 0.0522602C129.737 0.0668543 129.755 0.0853497 129.768 0.106667C129.78 0.125296 129.788 0.146084 129.792 0.167828C129.796 0.189571 129.795 0.211837 129.79 0.233333L126.544 13.9667C126.517 14.0862 126.516 14.2098 126.539 14.33C126.561 14.4502 126.609 14.5647 126.677 14.6667C126.809 14.8594 127.012 14.9935 127.243 15.04C127.306 15.0643 127.372 15.0756 127.44 15.0733H133.072C133.281 15.0718 133.482 15.0013 133.645 14.8731C133.807 14.7448 133.921 14.5664 133.968 14.3667L137.249 0.166667L137.44 0.0166667H145.163L145.34 0.235L141.257 17.6983C140.89 19.235 139.687 19.9833 137.579 19.9833H137.574ZM110.763 19.9833H94.8438C92.3696 19.9833 91.118 19.0567 91.118 17.23L94.5576 2.30333C94.9183 0.786667 96.1512 0.0166667 98.2258 0.0166667H116.05C116.36 0.0166667 116.511 0.13 116.511 0.363333V0.42L115.559 4.48C115.519 4.665 115.359 4.76333 115.102 4.76333H104.522C103.478 4.76333 102.861 5.15 102.688 5.91L100.91 13.5C100.896 13.5788 100.889 13.6584 100.888 13.7383C100.888 14.6267 101.499 15.0717 102.685 15.0717H106.511C107.535 15.0717 108.138 14.6917 108.302 13.95L108.919 11.3017C108.93 11.2861 108.935 11.2673 108.934 11.2483C108.934 11.0183 108.777 10.9017 108.468 10.9017H105.82C105.518 10.9017 105.359 10.7833 105.359 10.56V10.5517C105.36 10.5461 105.36 10.5405 105.359 10.535C105.36 10.5233 105.36 10.5117 105.359 10.5L105.96 7.88833C106.009 7.70667 106.167 7.615 106.429 7.615H114.592C115.839 7.615 116.445 8.065 116.445 8.98833C116.45 9.06796 116.442 9.1478 116.421 9.225L114.44 17.6967C114.086 19.235 112.883 19.9833 110.768 19.9833H110.763ZM209.257 19.9833H202.261C201.986 19.9833 201.834 19.8833 201.795 19.6767L198.828 5.53333H192.148C191.842 5.53333 191.679 5.41333 191.679 5.18667C191.675 5.16802 191.675 5.14865 191.679 5.13L192.78 0.308333C192.821 0.118333 192.978 0.0216667 193.249 0.0216667H205.612C205.875 0.0216667 206.027 0.12 206.076 0.321667L209.707 19.5767V19.6333C209.722 19.86 209.568 19.9767 209.262 19.9767L209.257 19.9833ZM198.394 19.9833H188.865C188.555 19.9833 188.402 19.87 188.402 19.635V19.5683L191.518 7.615H196.228C196.501 7.615 196.653 7.71 196.707 7.91167L198.836 19.5783C198.843 19.5942 198.846 19.6113 198.845 19.6283C198.851 19.86 198.699 19.9767 198.398 19.9767L198.394 19.9833ZM58.7357 19.9833H51.7413C51.4636 19.9833 51.3027 19.8783 51.2773 19.6767L48.3254 5.52667H41.6342C41.3362 5.52667 41.1837 5.41 41.1837 5.18V5.12333L42.2727 0.303333C42.3 0.209405 42.3611 0.128483 42.4447 0.0757173C42.5282 0.0229513 42.6284 0.0019578 42.7266 0.0166667H55.103C55.3808 0.0166667 55.5332 0.118333 55.5569 0.316667L59.2031 19.5717C59.2008 19.5843 59.2008 19.5973 59.2031 19.61C59.2039 19.6161 59.2039 19.6222 59.2031 19.6283C59.2133 19.86 59.0541 19.9767 58.7391 19.9767L58.7357 19.9833ZM47.875 19.9833H38.3572C38.0473 19.9833 37.883 19.8633 37.883 19.635C37.8812 19.6124 37.8841 19.5898 37.8915 19.5683L40.547 7.90167C40.5995 7.71667 40.7553 7.62333 41.011 7.62333H45.7258C45.9985 7.62333 46.1492 7.72333 46.1746 7.92L48.3373 19.5867V19.6367C48.3339 19.8633 48.1849 19.9767 47.8783 19.9767L47.875 19.9833ZM33.9879 19.9833H22.2414C21.9366 19.9833 21.7875 19.87 21.7875 19.635C21.7859 19.597 21.7934 19.5591 21.8093 19.5244C21.8251 19.4897 21.849 19.4591 21.879 19.435L33.2664 7.76833C33.3143 7.72026 33.3719 7.68254 33.4355 7.65758C33.4991 7.63261 33.5672 7.62095 33.6356 7.62333H36.6535C36.9566 7.62333 37.1091 7.74167 37.1091 7.97667V8.025L34.4604 19.6917C34.4306 19.7867 34.3668 19.868 34.2809 19.9204C34.195 19.9728 34.0927 19.9928 33.9929 19.9767L33.9879 19.9833ZM17.3623 19.9833H13.8685L13.3909 19.6667L10.8963 5.82C10.8523 5.62 10.705 5.52667 10.4306 5.52667H3.74955C3.44471 5.52667 3.28382 5.40667 3.28382 5.18C3.28214 5.16728 3.28214 5.15439 3.28382 5.14167C3.28435 5.13501 3.28435 5.12832 3.28382 5.12167L4.3931 0.303333C4.43713 0.11 4.58616 0.0166667 4.85036 0.0166667H17.2285C17.4995 0.0166667 17.6553 0.12 17.679 0.316667L19.1371 7.51L19.9721 7.67667L27.615 0.166667C27.6663 0.117565 27.727 0.0790117 27.7936 0.0532572C27.8602 0.0275027 27.9313 0.0150637 28.0029 0.0166667H38.4199C38.7315 0.0166667 38.889 0.133333 38.889 0.363333V0.413333L37.7848 5.24667C37.7492 5.43 37.5833 5.535 37.3292 5.535H31.9404C31.8709 5.53126 31.8013 5.54161 31.7361 5.5654C31.6708 5.5892 31.6112 5.62594 31.561 5.67333L17.745 19.84C17.6425 19.9329 17.5067 19.9821 17.3674 19.9767L17.3623 19.9833ZM9.98181 19.9833H0.46068C0.15076 19.9833 3.44868e-05 19.87 3.44868e-05 19.635C-0.00177066 19.6124 0.00111045 19.5898 0.00850223 19.5683L2.66568 7.90167C2.70294 7.72167 2.86721 7.62333 3.12802 7.62333H7.84116C8.11382 7.62333 8.26624 7.72333 8.29503 7.92L10.456 19.5867V19.6367C10.456 19.86 10.2985 19.9767 9.99197 19.9767L9.98181 19.9833Z"/></svg>