<svg xmlns="http://www.w3.org/2000/svg" viewBox="0 0 45 36" fill="white" class="icon">
    <path fill-rule="evenodd" clip-rule="evenodd" d="M27.5303 11.5113L27 10.981L25.9393 12.0416L26.4697 12.5719L31.1893 17.2916H1H0.25V18.7916H1H31.1893L26.4697 23.5113L25.9393 24.0416L27 25.1023L27.5303 24.5719L33.5303 18.5719C33.8232 18.2791 33.8232 17.8042 33.5303 17.5113L27.5303 11.5113Z" fill="white"/>
    <path opacity="0.4" fill-rule="evenodd" clip-rule="evenodd" d="M23.5516 0.591089C26.9925 -0.0938395 30.5591 0.257694 33.8003 1.60122C37.0416 2.94474 39.8118 5.21988 41.7608 8.13884C43.7098 11.0578 44.75 14.4895 44.75 18C44.75 21.5105 43.7098 24.9422 41.7608 27.8612C39.8118 30.7801 37.0416 33.0553 33.8003 34.3988C30.5591 35.7423 26.9925 36.0939 23.5516 35.4089C20.1107 34.724 16.9501 33.0334 14.4695 30.551L15.5305 29.4907C17.8015 31.7632 20.6947 33.3108 23.8445 33.9378C26.9942 34.5648 30.2590 34.2430 33.2260 33.0131C36.1930 31.7833 38.7290 29.7005 40.5133 27.0282C42.2976 24.3559 43.25 21.2141 43.25 18C43.25 14.7859 42.2976 11.6441 40.5133 8.97178C38.7290 6.29948 36.1930 4.21675 33.2260 2.98689C30.2590 1.75704 26.9942 1.43526 23.8445 2.06223C20.6947 2.68920 17.8015 4.23677 15.5305 6.50933L14.4695 5.44905C16.9501 2.96663 20.1107 1.27602 23.5516 0.591089Z" fill="white"/>
</svg>
