<?xml version="1.0" encoding="UTF-8" standalone="no"?>
<!DOCTYPE svg PUBLIC "-//W3C//DTD SVG 1.1//EN" "http://www.w3.org/Graphics/SVG/1.1/DTD/svg11.dtd">
<svg xmlns="http://www.w3.org/2000/svg" version="1.1" viewBox="0.00 0.00 1054.00 872.00">
<g stroke-width="2.00" fill="none" stroke-linecap="butt">
<path stroke="#809da3" vector-effect="non-scaling-stroke" d="
  M 514.05 382.88
  Q 512.27 376.16 510.85 369.34
  C 510.65 368.40 509.94 368.16 509.70 367.16
  Q 505.53 349.80 503.86 332.02
  Q 503.81 331.40 503.14 328.57
  C 502.29 324.94 502.33 321.92 500.84 317.76
  C 497.75 309.07 496.68 299.92 494.92 290.91
  Q 494.28 287.63 493.83 282.70
  C 493.05 274.27 490.37 262.46 486.60 252.71
  C 484.79 248.04 484.23 241.67 477.68 241.56
  C 470.33 241.43 462.60 240.85 455.77 240.79
  Q 400.26 240.32 344.75 241.09
  C 309.10 241.59 273.36 240.83 237.69 241.04
  Q 235.89 241.05 234.34 242.16
  A 1.53 1.51 25.5 0 1 233.51 242.45
  C 219.96 243.15 209.89 252.85 206.99 265.81
  Q 206.88 266.33 206.23 266.87
  Q 205.84 267.20 205.78 267.72
  C 203.86 285.32 196.41 301.42 192.33 317.77
  C 190.55 324.91 191.56 332.05 189.91 339.19
  Q 189.29 341.86 191.29 346.67
  Q 191.47 347.10 191.85 347.35
  C 201.15 353.54 211.56 350.42 222.15 350.73
  C 255.48 351.70 289.21 350.46 321.99 351.53
  Q 337.95 352.05 348.90 363.46
  C 349.96 364.56 349.85 365.58 350.78 366.80
  Q 351.08 367.20 351.05 367.71
  C 350.69 372.78 352.46 376.89 352.67 381.63
  Q 353.07 390.52 355.84 400.19
  C 357.19 404.89 356.58 409.96 357.81 414.67
  Q 359.26 420.19 360.65 425.74
  C 361.44 428.89 361.53 432.96 362.78 436.70
  Q 364.37 441.47 363.93 447.00
  C 363.85 448.05 364.93 449.92 364.96 451.47
  Q 365.05 455.68 365.81 459.84
  C 366.08 461.32 365.79 462.94 366.38 464.54
  Q 367.37 467.23 367.47 467.78
  Q 369.16 477.20 370.91 486.61
  C 372.93 497.50 374.22 509.84 376.23 521.44
  A 0.10 0.09 -26.8 0 0 376.39 521.49
  Q 376.47 521.40 376.57 521.31
  A 0.18 0.18 0.0 0 1 376.88 521.44
  Q 376.79 528.11 377.73 530.75
  Q 378.54 533.04 378.81 534.72
  C 380.45 544.85 385.91 554.68 386.44 564.88
  Q 387.05 576.68 388.06 588.44
  Q 388.09 588.86 388.46 589.06
  Q 388.74 589.22 388.78 589.49
  Q 391.38 607.08 395.47 624.37
  Q 397.01 630.87 397.71 636.77
  C 398.59 644.25 398.81 650.60 401.95 657.56
  C 405.09 664.53 414.05 664.87 420.72 665.06
  Q 447.08 665.80 473.44 665.31
  C 490.67 664.99 501.59 648.17 511.80 636.47
  C 519.75 627.35 529.24 618.56 537.79 609.42
  C 568.03 577.10 595.29 552.42 616.79 529.46
  C 628.80 516.63 640.85 504.66 652.31 491.74
  C 661.80 481.02 672.41 471.51 681.98 460.97
  C 705.07 435.56 730.07 411.77 754.37 387.51
  C 763.96 377.94 774.33 364.03 782.59 356.58
  C 788.71 351.06 799.88 351.42 808.34 351.56
  Q 828.26 351.88 848.18 351.69
  C 866.12 351.53 885.00 352.43 902.69 351.42
  Q 906.64 351.20 910.95 349.24
  Q 911.38 349.04 911.63 348.63
  C 917.52 338.93 918.36 328.64 920.24 318.10
  C 921.23 312.55 923.01 307.42 924.59 302.02
  C 927.95 290.58 928.48 278.74 932.02 267.31
  Q 933.88 261.31 935.66 255.28
  C 936.59 252.14 938.69 249.62 937.69 245.45
  Q 937.59 245.00 937.24 244.68
  Q 934.39 242.10 932.32 241.90
  Q 919.56 240.65 900.16 240.82
  C 858.52 241.18 816.88 241.02 775.24 241.00
  C 764.98 240.99 747.92 239.94 734.14 240.89
  C 727.87 241.32 721.11 241.08 714.59 241.62
  C 709.05 242.07 703.36 245.37 699.71 248.96
  Q 659.50 288.53 559.14 389.14
  Q 551.95 396.34 544.09 402.88
  Q 534.41 410.91 524.07 403.66
  C 522.27 402.40 520.29 401.58 519.20 399.57
  C 516.49 394.56 515.68 388.46 514.50 382.91
  Q 514.47 382.75 514.32 382.83
  L 514.07 382.96
  Q 514.07 382.96 514.05 382.88"
/>
<path stroke="#809da3" vector-effect="non-scaling-stroke" d="
  M 858.67 594.13
  Q 861.48 582.76 863.73 571.26
  C 864.36 568.02 864.14 564.50 864.70 561.07
  C 865.25 557.69 867.47 554.08 868.16 550.16
  Q 868.23 549.74 868.50 549.41
  Q 868.63 549.25 868.76 549.08
  Q 869.00 548.77 869.08 548.34
  C 872.13 533.19 874.82 518.02 878.73 503.30
  Q 881.00 494.72 882.37 486.49
  Q 886.11 463.84 888.08 456.82
  Q 892.36 441.55 895.50 426.03
  Q 896.09 423.14 896.87 420.14
  C 898.45 414.04 900.30 408.88 891.87 408.02
  C 875.44 406.35 858.52 406.96 841.98 406.51
  C 835.84 406.34 826.24 407.32 821.52 411.53
  Q 806.95 424.54 785.68 447.43
  C 776.73 457.07 759.88 472.04 748.45 486.39
  C 737.00 500.75 723.64 512.62 711.21 525.82
  C 688.10 550.37 663.61 573.56 639.97 597.61
  C 637.45 600.17 635.10 603.69 632.94 605.94
  Q 621.21 618.12 609.53 630.35
  C 602.13 638.10 595.50 646.42 588.11 654.11
  C 585.93 656.37 581.37 664.57 587.76 664.31
  Q 592.91 664.10 596.67 664.39
  C 611.09 665.50 624.76 665.72 635.06 665.74
  Q 679.35 665.85 800.94 665.32
  C 807.51 665.30 837.92 666.00 841.04 661.55
  Q 844.51 656.60 845.13 653.03
  Q 848.17 635.51 852.55 618.28
  C 853.22 615.62 853.56 612.31 854.41 609.39
  C 855.35 606.16 855.59 602.13 856.98 598.80
  Q 858.30 595.61 858.67 594.13"
/>
<path stroke="#809da3" vector-effect="non-scaling-stroke" d="
  M 299.56 491.69
  C 298.11 488.47 299.14 484.27 298.67 481.16
  C 296.88 469.27 293.26 457.63 291.36 446.14
  Q 288.65 429.87 285.23 413.72
  C 283.50 405.52 269.15 406.94 262.98 407.10
  Q 228.77 407.98 194.55 407.34
  C 184.42 407.15 171.16 408.61 170.26 421.48
  Q 170.22 422.09 169.92 422.46
  Q 169.62 422.84 169.59 423.33
  Q 168.81 437.22 166.74 443.99
  C 162.41 458.10 159.04 474.25 155.66 486.66
  C 151.14 503.33 146.84 517.38 145.00 536.50
  Q 144.39 542.85 140.26 558.91
  C 137.09 571.23 134.90 582.78 131.04 595.76
  C 124.99 616.14 121.82 637.27 119.94 658.44
  C 119.69 661.24 121.00 663.47 123.77 663.79
  Q 136.05 665.22 156.50 665.29
  Q 226.87 665.51 297.25 665.35
  Q 314.58 665.31 322.07 664.37
  C 324.71 664.04 326.64 661.48 326.55 658.61
  Q 325.99 640.60 325.57 635.68
  Q 323.75 614.22 318.99 593.27
  C 318.56 591.37 317.32 588.91 316.75 586.62
  C 313.82 574.65 311.78 559.88 309.97 550.47
  Q 304.60 522.52 299.85 494.46
  Q 299.76 493.95 299.87 493.45
  Q 300.02 492.71 299.56 491.69"
/>
</g>
<path fill="#003a47" d="
  M 0.00 0.00
  L 1054.00 0.00
  L 1054.00 872.00
  L 0.00 872.00
  L 0.00 0.00
  Z
  M 514.05 382.88
  Q 512.27 376.16 510.85 369.34
  C 510.65 368.40 509.94 368.16 509.70 367.16
  Q 505.53 349.80 503.86 332.02
  Q 503.81 331.40 503.14 328.57
  C 502.29 324.94 502.33 321.92 500.84 317.76
  C 497.75 309.07 496.68 299.92 494.92 290.91
  Q 494.28 287.63 493.83 282.70
  C 493.05 274.27 490.37 262.46 486.60 252.71
  C 484.79 248.04 484.23 241.67 477.68 241.56
  C 470.33 241.43 462.60 240.85 455.77 240.79
  Q 400.26 240.32 344.75 241.09
  C 309.10 241.59 273.36 240.83 237.69 241.04
  Q 235.89 241.05 234.34 242.16
  A 1.53 1.51 25.5 0 1 233.51 242.45
  C 219.96 243.15 209.89 252.85 206.99 265.81
  Q 206.88 266.33 206.23 266.87
  Q 205.84 267.20 205.78 267.72
  C 203.86 285.32 196.41 301.42 192.33 317.77
  C 190.55 324.91 191.56 332.05 189.91 339.19
  Q 189.29 341.86 191.29 346.67
  Q 191.47 347.10 191.85 347.35
  C 201.15 353.54 211.56 350.42 222.15 350.73
  C 255.48 351.70 289.21 350.46 321.99 351.53
  Q 337.95 352.05 348.90 363.46
  C 349.96 364.56 349.85 365.58 350.78 366.80
  Q 351.08 367.20 351.05 367.71
  C 350.69 372.78 352.46 376.89 352.67 381.63
  Q 353.07 390.52 355.84 400.19
  C 357.19 404.89 356.58 409.96 357.81 414.67
  Q 359.26 420.19 360.65 425.74
  C 361.44 428.89 361.53 432.96 362.78 436.70
  Q 364.37 441.47 363.93 447.00
  C 363.85 448.05 364.93 449.92 364.96 451.47
  Q 365.05 455.68 365.81 459.84
  C 366.08 461.32 365.79 462.94 366.38 464.54
  Q 367.37 467.23 367.47 467.78
  Q 369.16 477.20 370.91 486.61
  C 372.93 497.50 374.22 509.84 376.23 521.44
  A 0.10 0.09 -26.8 0 0 376.39 521.49
  Q 376.47 521.40 376.57 521.31
  A 0.18 0.18 0.0 0 1 376.88 521.44
  Q 376.79 528.11 377.73 530.75
  Q 378.54 533.04 378.81 534.72
  C 380.45 544.85 385.91 554.68 386.44 564.88
  Q 387.05 576.68 388.06 588.44
  Q 388.09 588.86 388.46 589.06
  Q 388.74 589.22 388.78 589.49
  Q 391.38 607.08 395.47 624.37
  Q 397.01 630.87 397.71 636.77
  C 398.59 644.25 398.81 650.60 401.95 657.56
  C 405.09 664.53 414.05 664.87 420.72 665.06
  Q 447.08 665.80 473.44 665.31
  C 490.67 664.99 501.59 648.17 511.80 636.47
  C 519.75 627.35 529.24 618.56 537.79 609.42
  C 568.03 577.10 595.29 552.42 616.79 529.46
  C 628.80 516.63 640.85 504.66 652.31 491.74
  C 661.80 481.02 672.41 471.51 681.98 460.97
  C 705.07 435.56 730.07 411.77 754.37 387.51
  C 763.96 377.94 774.33 364.03 782.59 356.58
  C 788.71 351.06 799.88 351.42 808.34 351.56
  Q 828.26 351.88 848.18 351.69
  C 866.12 351.53 885.00 352.43 902.69 351.42
  Q 906.64 351.20 910.95 349.24
  Q 911.38 349.04 911.63 348.63
  C 917.52 338.93 918.36 328.64 920.24 318.10
  C 921.23 312.55 923.01 307.42 924.59 302.02
  C 927.95 290.58 928.48 278.74 932.02 267.31
  Q 933.88 261.31 935.66 255.28
  C 936.59 252.14 938.69 249.62 937.69 245.45
  Q 937.59 245.00 937.24 244.68
  Q 934.39 242.10 932.32 241.90
  Q 919.56 240.65 900.16 240.82
  C 858.52 241.18 816.88 241.02 775.24 241.00
  C 764.98 240.99 747.92 239.94 734.14 240.89
  C 727.87 241.32 721.11 241.08 714.59 241.62
  C 709.05 242.07 703.36 245.37 699.71 248.96
  Q 659.50 288.53 559.14 389.14
  Q 551.95 396.34 544.09 402.88
  Q 534.41 410.91 524.07 403.66
  C 522.27 402.40 520.29 401.58 519.20 399.57
  C 516.49 394.56 515.68 388.46 514.50 382.91
  Q 514.47 382.75 514.32 382.83
  L 514.07 382.96
  Q 514.07 382.96 514.05 382.88
  Z
  M 858.67 594.13
  Q 861.48 582.76 863.73 571.26
  C 864.36 568.02 864.14 564.50 864.70 561.07
  C 865.25 557.69 867.47 554.08 868.16 550.16
  Q 868.23 549.74 868.50 549.41
  Q 868.63 549.25 868.76 549.08
  Q 869.00 548.77 869.08 548.34
  C 872.13 533.19 874.82 518.02 878.73 503.30
  Q 881.00 494.72 882.37 486.49
  Q 886.11 463.84 888.08 456.82
  Q 892.36 441.55 895.50 426.03
  Q 896.09 423.14 896.87 420.14
  C 898.45 414.04 900.30 408.88 891.87 408.02
  C 875.44 406.35 858.52 406.96 841.98 406.51
  C 835.84 406.34 826.24 407.32 821.52 411.53
  Q 806.95 424.54 785.68 447.43
  C 776.73 457.07 759.88 472.04 748.45 486.39
  C 737.00 500.75 723.64 512.62 711.21 525.82
  C 688.10 550.37 663.61 573.56 639.97 597.61
  C 637.45 600.17 635.10 603.69 632.94 605.94
  Q 621.21 618.12 609.53 630.35
  C 602.13 638.10 595.50 646.42 588.11 654.11
  C 585.93 656.37 581.37 664.57 587.76 664.31
  Q 592.91 664.10 596.67 664.39
  C 611.09 665.50 624.76 665.72 635.06 665.74
  Q 679.35 665.85 800.94 665.32
  C 807.51 665.30 837.92 666.00 841.04 661.55
  Q 844.51 656.60 845.13 653.03
  Q 848.17 635.51 852.55 618.28
  C 853.22 615.62 853.56 612.31 854.41 609.39
  C 855.35 606.16 855.59 602.13 856.98 598.80
  Q 858.30 595.61 858.67 594.13
  Z
  M 299.56 491.69
  C 298.11 488.47 299.14 484.27 298.67 481.16
  C 296.88 469.27 293.26 457.63 291.36 446.14
  Q 288.65 429.87 285.23 413.72
  C 283.50 405.52 269.15 406.94 262.98 407.10
  Q 228.77 407.98 194.55 407.34
  C 184.42 407.15 171.16 408.61 170.26 421.48
  Q 170.22 422.09 169.92 422.46
  Q 169.62 422.84 169.59 423.33
  Q 168.81 437.22 166.74 443.99
  C 162.41 458.10 159.04 474.25 155.66 486.66
  C 151.14 503.33 146.84 517.38 145.00 536.50
  Q 144.39 542.85 140.26 558.91
  C 137.09 571.23 134.90 582.78 131.04 595.76
  C 124.99 616.14 121.82 637.27 119.94 658.44
  C 119.69 661.24 121.00 663.47 123.77 663.79
  Q 136.05 665.22 156.50 665.29
  Q 226.87 665.51 297.25 665.35
  Q 314.58 665.31 322.07 664.37
  C 324.71 664.04 326.64 661.48 326.55 658.61
  Q 325.99 640.60 325.57 635.68
  Q 323.75 614.22 318.99 593.27
  C 318.56 591.37 317.32 588.91 316.75 586.62
  C 313.82 574.65 311.78 559.88 309.97 550.47
  Q 304.60 522.52 299.85 494.46
  Q 299.76 493.95 299.87 493.45
  Q 300.02 492.71 299.56 491.69
  Z"
/>
<path fill="#ffffff" d="
  M 514.07 382.96
  L 514.32 382.83
  Q 514.47 382.75 514.50 382.91
  C 515.68 388.46 516.49 394.56 519.20 399.57
  C 520.29 401.58 522.27 402.40 524.07 403.66
  Q 534.41 410.91 544.09 402.88
  Q 551.95 396.34 559.14 389.14
  Q 659.50 288.53 699.71 248.96
  C 703.36 245.37 709.05 242.07 714.59 241.62
  C 721.11 241.08 727.87 241.32 734.14 240.89
  C 747.92 239.94 764.98 240.99 775.24 241.00
  C 816.88 241.02 858.52 241.18 900.16 240.82
  Q 919.56 240.65 932.32 241.90
  Q 934.39 242.10 937.24 244.68
  Q 937.59 245.00 937.69 245.45
  C 938.69 249.62 936.59 252.14 935.66 255.28
  Q 933.88 261.31 932.02 267.31
  C 928.48 278.74 927.95 290.58 924.59 302.02
  C 923.01 307.42 921.23 312.55 920.24 318.10
  C 918.36 328.64 917.52 338.93 911.63 348.63
  Q 911.38 349.04 910.95 349.24
  Q 906.64 351.20 902.69 351.42
  C 885.00 352.43 866.12 351.53 848.18 351.69
  Q 828.26 351.88 808.34 351.56
  C 799.88 351.42 788.71 351.06 782.59 356.58
  C 774.33 364.03 763.96 377.94 754.37 387.51
  C 730.07 411.77 705.07 435.56 681.98 460.97
  C 672.41 471.51 661.80 481.02 652.31 491.74
  C 640.85 504.66 628.80 516.63 616.79 529.46
  C 595.29 552.42 568.03 577.10 537.79 609.42
  C 529.24 618.56 519.75 627.35 511.80 636.47
  C 501.59 648.17 490.67 664.99 473.44 665.31
  Q 447.08 665.80 420.72 665.06
  C 414.05 664.87 405.09 664.53 401.95 657.56
  C 398.81 650.60 398.59 644.25 397.71 636.77
  Q 397.01 630.87 395.47 624.37
  Q 391.38 607.08 388.78 589.49
  Q 388.74 589.22 388.46 589.06
  Q 388.09 588.86 388.06 588.44
  Q 387.05 576.68 386.44 564.88
  C 385.91 554.68 380.45 544.85 378.81 534.72
  Q 378.54 533.04 377.73 530.75
  Q 376.79 528.11 376.88 521.44
  A 0.18 0.18 0.0 0 0 376.57 521.31
  Q 376.47 521.40 376.39 521.49
  A 0.10 0.09 -26.8 0 1 376.23 521.44
  C 374.22 509.84 372.93 497.50 370.91 486.61
  Q 369.16 477.20 367.47 467.78
  Q 367.37 467.23 366.38 464.54
  C 365.79 462.94 366.08 461.32 365.81 459.84
  Q 365.05 455.68 364.96 451.47
  C 364.93 449.92 363.85 448.05 363.93 447.00
  Q 364.37 441.47 362.78 436.70
  C 361.53 432.96 361.44 428.89 360.65 425.74
  Q 359.26 420.19 357.81 414.67
  C 356.58 409.96 357.19 404.89 355.84 400.19
  Q 353.07 390.52 352.67 381.63
  C 352.46 376.89 350.69 372.78 351.05 367.71
  Q 351.08 367.20 350.78 366.80
  C 349.85 365.58 349.96 364.56 348.90 363.46
  Q 337.95 352.05 321.99 351.53
  C 289.21 350.46 255.48 351.70 222.15 350.73
  C 211.56 350.42 201.15 353.54 191.85 347.35
  Q 191.47 347.10 191.29 346.67
  Q 189.29 341.86 189.91 339.19
  C 191.56 332.05 190.55 324.91 192.33 317.77
  C 196.41 301.42 203.86 285.32 205.78 267.72
  Q 205.84 267.20 206.23 266.87
  Q 206.88 266.33 206.99 265.81
  C 209.89 252.85 219.96 243.15 233.51 242.45
  A 1.53 1.51 25.5 0 0 234.34 242.16
  Q 235.89 241.05 237.69 241.04
  C 273.36 240.83 309.10 241.59 344.75 241.09
  Q 400.26 240.32 455.77 240.79
  C 462.60 240.85 470.33 241.43 477.68 241.56
  C 484.23 241.67 484.79 248.04 486.60 252.71
  C 490.37 262.46 493.05 274.27 493.83 282.70
  Q 494.28 287.63 494.92 290.91
  C 496.68 299.92 497.75 309.07 500.84 317.76
  C 502.33 321.92 502.29 324.94 503.14 328.57
  Q 503.81 331.40 503.86 332.02
  Q 505.53 349.80 509.70 367.16
  C 509.94 368.16 510.65 368.40 510.85 369.34
  Q 512.27 376.16 514.05 382.88
  Q 514.07 382.96 514.07 382.96
  Z"
/>
<path fill="#ffffff" d="
  M 856.98 598.80
  C 855.59 602.13 855.35 606.16 854.41 609.39
  C 853.56 612.31 853.22 615.62 852.55 618.28
  Q 848.17 635.51 845.13 653.03
  Q 844.51 656.60 841.04 661.55
  C 837.92 666.00 807.51 665.30 800.94 665.32
  Q 679.35 665.85 635.06 665.74
  C 624.76 665.72 611.09 665.50 596.67 664.39
  Q 592.91 664.10 587.76 664.31
  C 581.37 664.57 585.93 656.37 588.11 654.11
  C 595.50 646.42 602.13 638.10 609.53 630.35
  Q 621.21 618.12 632.94 605.94
  C 635.10 603.69 637.45 600.17 639.97 597.61
  C 663.61 573.56 688.10 550.37 711.21 525.82
  C 723.64 512.62 737.00 500.75 748.45 486.39
  C 759.88 472.04 776.73 457.07 785.68 447.43
  Q 806.95 424.54 821.52 411.53
  C 826.24 407.32 835.84 406.34 841.98 406.51
  C 858.52 406.96 875.44 406.35 891.87 408.02
  C 900.30 408.88 898.45 414.04 896.87 420.14
  Q 896.09 423.14 895.50 426.03
  Q 892.36 441.55 888.08 456.82
  Q 886.11 463.84 882.37 486.49
  Q 881.00 494.72 878.73 503.30
  C 874.82 518.02 872.13 533.19 869.08 548.34
  Q 869.00 548.77 868.76 549.08
  Q 868.63 549.25 868.50 549.41
  Q 868.23 549.74 868.16 550.16
  C 867.47 554.08 865.25 557.69 864.70 561.07
  C 864.14 564.50 864.36 568.02 863.73 571.26
  Q 861.48 582.76 858.67 594.13
  Q 858.30 595.61 856.98 598.80
  Z"
/>
<path fill="#ffffff" d="
  M 299.56 491.69
  Q 300.02 492.71 299.87 493.45
  Q 299.76 493.95 299.85 494.46
  Q 304.60 522.52 309.97 550.47
  C 311.78 559.88 313.82 574.65 316.75 586.62
  C 317.32 588.91 318.56 591.37 318.99 593.27
  Q 323.75 614.22 325.57 635.68
  Q 325.99 640.60 326.55 658.61
  C 326.64 661.48 324.71 664.04 322.07 664.37
  Q 314.58 665.31 297.25 665.35
  Q 226.87 665.51 156.50 665.29
  Q 136.05 665.22 123.77 663.79
  C 121.00 663.47 119.69 661.24 119.94 658.44
  C 121.82 637.27 124.99 616.14 131.04 595.76
  C 134.90 582.78 137.09 571.23 140.26 558.91
  Q 144.39 542.85 145.00 536.50
  C 146.84 517.38 151.14 503.33 155.66 486.66
  C 159.04 474.25 162.41 458.10 166.74 443.99
  Q 168.81 437.22 169.59 423.33
  Q 169.62 422.84 169.92 422.46
  Q 170.22 422.09 170.26 421.48
  C 171.16 408.61 184.42 407.15 194.55 407.34
  Q 228.77 407.98 262.98 407.10
  C 269.15 406.94 283.50 405.52 285.23 413.72
  Q 288.65 429.87 291.36 446.14
  C 293.26 457.63 296.88 469.27 298.67 481.16
  C 299.14 484.27 298.11 488.47 299.56 491.69
  Z"
/>
</svg>
